<?xml version="1.0" ?><svg id="Layer_1" style="enable-background:new 0 0 137.3 139.3;" version="1.1" viewBox="0 0 137.3 139.3" xml:space="preserve" xmlns="http://www.w3.org/2000/svg" xmlns:xlink="http://www.w3.org/1999/xlink"><style type="text/css">
	.st0{fill:#2C8AAA;}
	.st1{opacity:0.19;clip-path:url(#XMLID_39_);fill:#070808;}
	.st2{fill:#FFFFFF;}
	.st3{fill:#215C6D;}
	.st4{fill:#33A0DA;}
	.st5{fill:#EEC75E;}
	.st6{fill:#22728E;}
</style><g id="XMLID_2661_"><g id="XMLID_642_"><circle class="st0" cx="68.5" cy="69.6" id="XMLID_2357_" r="66.2"/><g id="XMLID_1531_"><defs><circle cx="68.7" cy="69.6" id="XMLID_2014_" r="66.2"/></defs><clipPath id="XMLID_39_"><use style="overflow:visible;" xlink:href="#XMLID_2014_"/></clipPath><polygon class="st1" id="XMLID_2015_" points="94.3,29.6 143.2,68.3 134,135.8 89.2,133.9 41.2,102.2 48.6,56.5 74.9,41.7    "/></g></g><path class="st2" d="M37.6,37.3" id="XMLID_2011_"/><path class="st2" d="M96,41.7" id="XMLID_2009_"/><path class="st2" d="M96,35.1" id="XMLID_2004_"/><path class="st2" d="M40.4,41.7" id="XMLID_1535_"/><rect class="st3" height="14.5" id="XMLID_1201_" width="50.1" x="44.2" y="29.6"/><polyline class="st4" id="XMLID_1534_" points="97.4,41.7 41.2,41.7 41.2,102.2 97.4,102.2  "/><path class="st5" d="M40.5,41.7" id="XMLID_640_"/><path class="st2" d="M83.1,50.3c0-0.6-0.5-1-1-1s-1.1,0.5-1.1,1c0,6.7-5,12.1-11.7,12.1c-6.7,0-11.8-5.4-11.8-12.1   c0-0.6-0.5-1-1-1s-1.1,0.5-1.1,1c0,7.8,6.1,14.2,13.9,14.2C77.2,64.5,83.1,58.1,83.1,50.3z" id="XMLID_636_"/><polygon class="st4" id="XMLID_639_" points="50.2,39.7 50.2,33.6 44.2,29.6 44.2,39.6  "/><polygon class="st6" id="XMLID_637_" points="50.2,41.7 50.2,33.7 41.2,41.7  "/><polygon class="st4" id="XMLID_646_" points="94.3,39.6 94.3,29.6 88.3,33.6 88.3,39.6  "/><polygon class="st6" id="XMLID_207_" points="97.4,41.7 88.3,33.6 88.3,41.7  "/></g></svg>